<?xml version="1.0" encoding="UTF-8" standalone="no"?>
<!-- Created with Inkscape (http://www.inkscape.org/) -->

<svg
   xmlns:dc="http://purl.org/dc/elements/1.1/"
   xmlns:cc="http://creativecommons.org/ns#"
   xmlns:rdf="http://www.w3.org/1999/02/22-rdf-syntax-ns#"
   xmlns:svg="http://www.w3.org/2000/svg"
   xmlns="http://www.w3.org/2000/svg"
   xmlns:xlink="http://www.w3.org/1999/xlink"
   xmlns:sodipodi="http://sodipodi.sourceforge.net/DTD/sodipodi-0.dtd"
   xmlns:inkscape="http://www.inkscape.org/namespaces/inkscape"
   width="216.8277mm"
   height="81.708694mm"
   viewBox="0 0 216.82771 81.708694"
   version="1.1"
   id="svg8"
   inkscape:version="0.92.1 r15371"
   sodipodi:docname="Cloud2.svg">
  <defs
     id="defs2">
    <filter
       inkscape:collect="always"
       style="color-interpolation-filters:sRGB"
       id="filter1072"
       x="-0.030494666"
       width="1.0609893"
       y="-0.11048164"
       height="1.2209634">
      <feGaussianBlur
         inkscape:collect="always"
         stdDeviation="1.5203789"
         id="feGaussianBlur1074" />
    </filter>
    <filter
       inkscape:collect="always"
       style="color-interpolation-filters:sRGB"
       id="filter1132"
       x="-0.068740889"
       width="1.1374818"
       y="-0.25765002"
       height="1.5153">
      <feGaussianBlur
         inkscape:collect="always"
         stdDeviation="5.1136329"
         id="feGaussianBlur1134" />
    </filter>
    <filter
       inkscape:collect="always"
       style="color-interpolation-filters:sRGB"
       id="filter1136"
       x="-0.067929901"
       width="1.1358598"
       y="-0.25905478"
       height="1.5181094">
      <feGaussianBlur
         inkscape:collect="always"
         stdDeviation="5.1136329"
         id="feGaussianBlur1138" />
    </filter>
  </defs>
  <sodipodi:namedview
     id="base"
     pagecolor="#ffffff"
     bordercolor="#666666"
     borderopacity="1.0"
     inkscape:pageopacity="0.0"
     inkscape:pageshadow="2"
     inkscape:zoom="2.1476346"
     inkscape:cx="409.75313"
     inkscape:cy="154.41013"
     inkscape:document-units="mm"
     inkscape:current-layer="svg8"
     showgrid="false"
     showguides="false"
     inkscape:window-width="1920"
     inkscape:window-height="1001"
     inkscape:window-x="-9"
     inkscape:window-y="-9"
     inkscape:window-maximized="1"
     inkscape:snap-grids="true" />
  <metadata
     id="metadata5">
    <rdf:RDF>
      <cc:Work
         rdf:about="">
        <dc:format>image/svg+xml</dc:format>
        <dc:type
           rdf:resource="http://purl.org/dc/dcmitype/StillImage" />
        <dc:title />
      </cc:Work>
    </rdf:RDF>
  </metadata>
  <g
     inkscape:groupmode="layer"
     id="layer3"
     inkscape:label="Layer 3"
     transform="translate(20.421742,16.517542)">
    <path
       transform="translate(3.2958333e-7,-3.41e-6)"
       style="fill:#000000;fill-opacity:1;stroke:#000000;stroke-width:0.26499999;stroke-miterlimit:4;stroke-dasharray:none;stroke-opacity:1;filter:url(#filter1132)"
       d="M 129.07608,5.2852226 A 29.213394,6.8084125 0 0 0 101.4268,10.009463 71.003949,19.647809 0 0 0 93.763967,9.8974816 71.003949,19.647809 0 0 0 23.427655,27.71165 42.83489,13.923503 0 0 0 5.5973652,39.040502 42.83489,13.923503 0 0 0 48.501845,52.918416 42.83489,13.923503 0 0 0 79.002377,48.729401 71.003949,19.647809 0 0 0 94.226107,49.192867 71.003949,19.647809 0 0 0 156.10025,39.110434 36.409655,13.883991 0 0 0 184.13323,25.615543 h -20.52326 a 71.003949,19.647809 0 0 0 -0.0324,-0.03931 l 20.55473,-0.05073 a 36.409655,13.883991 0 0 0 -25.7533,-13.184541 29.213394,6.8084125 0 0 0 0.0531,-0.247273 h -2.61454 a 36.409655,13.883991 0 0 0 -0.41659,-0.03977 l 3.03066,-0.0046 A 29.213394,6.8084125 0 0 0 129.07608,5.2852226 Z m 10.77755,6.7924664 a 36.409655,13.883991 0 0 0 -0.18599,0.016 h -10.44878 z m -27.05659,17.433889 a 36.409655,13.883991 0 0 0 0.0296,0.03382 H 94.110607 Z"
       id="path27661"
       inkscape:connector-curvature="0" />
    <path
       style="fill:#f2f2f2;fill-opacity:1;stroke:none;stroke-width:0.26499999;stroke-miterlimit:4;stroke-dasharray:none;stroke-opacity:1;filter:url(#filter1136)"
       d="m 115.86473,-4.2446583 c -2.6462,-0.0029 -5.04071,0.0325 -6.32526,0.11516 -8.98012,0.577868 -15.726274,1.888218 -19.551104,3.79663794 l -1.17829,0.587636 -8.268482,0.04005 c -8.54669,0.04157 -12.01886,0.177749 -19.27553,0.75559496 -20.73996,1.651516 -37.36446,5.6770511 -46.02041,11.1436644 -2.38944,1.509035 -4.80481,4.08161 -5.3878396,5.738425 -0.008,0.02296 -0.9829501,0.297717 -2.1665401,0.610393 -4.9927919,1.318977 -9.4494219,3.192448 -12.0884311,5.081606 -6.4944902,4.649137 -4.4433201,10.148604 5.26715923,14.123256 7.10429187,2.9079 17.19583157,4.782629 28.55459157,5.304187 3.42148,0.157102 10.86089,0.0668 14.42126,-0.174786 7.3239,-0.496956 14.49229,-1.640549 19.58674,-3.124798 l 2.08007,-0.605843 3.72683,0.08284 c 7.07918,0.157721 22.386352,0.07664 25.999852,-0.137919 20.354104,-1.208572 36.075484,-4.172718 47.172614,-8.893719 1.64254,-0.698788 2.02934,-0.791845 4.56777,-1.099711 14.27869,-1.73174 24.1814,-6.495793 25.40933,-12.224254 0.188,-0.877112 0.17771,-1.173894 -0.075,-2.155265 -0.38913,-1.510743 -1.15568,-2.684935 -2.62788,-4.025591 -3.93448,-3.5829783 -11.14185,-6.2523383 -20.71277,-7.6715704 -1.19167,-0.176708 -2.21323,-0.322213 -2.26964,-0.323176 -0.0564,-9.79e-4 -0.19291,-0.291512 -0.30359,-0.645442 -0.84084,-2.68868496 -7.94903,-4.9131599 -19.18053,-6.0028849 -1.83504,-0.178043 -6.9445,-0.289685 -11.35484,-0.2945 z"
       id="path27741-4"
       inkscape:connector-curvature="0" />
  </g>
  <g
     inkscape:label="Layer 1"
     inkscape:groupmode="layer"
     id="layer1"
     transform="translate(-2.7354368,-94.122301)">
    <text
       xml:space="preserve"
       style="font-style:normal;font-weight:normal;font-size:10.58333302px;line-height:1.25;font-family:sans-serif;letter-spacing:0px;word-spacing:0px;fill:#000000;fill-opacity:1;stroke:none;stroke-width:0.26458332"
       x="-170.95592"
       y="-31.825718"
       id="text39-1"><tspan
         sodipodi:role="line"
         id="tspan37-3"
         x="-170.95592"
         y="-22.170223"
         style="stroke-width:0.26458332" /></text>
    <use
       height="100%"
       width="100%"
       x="0"
       y="0"
       xlink:href="#text39-1"
       id="use3937-1"
       transform="translate(-1.0004167e-6,3.99e-6)" />
    <text
       id="use3955-0"
       y="-31.825718"
       x="-170.95592"
       style="font-style:normal;font-weight:normal;font-size:10.58333302px;line-height:1.25;font-family:sans-serif;letter-spacing:0px;word-spacing:0px;fill:#000000;fill-opacity:1;stroke:none;stroke-width:0.26458332"
       xml:space="preserve"><tspan
         style="stroke-width:0.26458332"
         y="-22.170223"
         x="-170.95592"
         id="tspan3969-0"
         sodipodi:role="line" /></text>
    <text
       xml:space="preserve"
       style="font-style:normal;font-weight:normal;font-size:10.58333302px;line-height:1.25;font-family:sans-serif;letter-spacing:0px;word-spacing:0px;fill:#000000;fill-opacity:1;stroke:none;stroke-width:0.26458332"
       x="-380.47311"
       y="-125.00589"
       id="text39-8-7"><tspan
         sodipodi:role="line"
         id="tspan37-8-1"
         x="-380.47311"
         y="-115.3504"
         style="stroke-width:0.26458332" /></text>
    <use
       height="100%"
       width="100%"
       x="0"
       y="0"
       xlink:href="#text39-8-7"
       id="use3937-8-3"
       transform="translate(-1.0004167e-6,3.99e-6)" />
    <text
       id="use3955-5-4"
       y="-125.00589"
       x="-380.47311"
       style="font-style:normal;font-weight:normal;font-size:10.58333302px;line-height:1.25;font-family:sans-serif;letter-spacing:0px;word-spacing:0px;fill:#000000;fill-opacity:1;stroke:none;stroke-width:0.26458332"
       xml:space="preserve"><tspan
         style="stroke-width:0.26458332"
         y="-115.3504"
         x="-380.47311"
         id="tspan3969-4-1"
         sodipodi:role="line" /></text>
    <text
       xml:space="preserve"
       style="font-style:normal;font-weight:normal;font-size:10.58333302px;line-height:1.25;font-family:sans-serif;letter-spacing:0px;word-spacing:0px;fill:#000000;fill-opacity:1;stroke:none;stroke-width:0.26458332"
       x="-252.8903"
       y="31.382771"
       id="text39-1-4"><tspan
         sodipodi:role="line"
         id="tspan37-3-3"
         x="-252.8903"
         y="41.038265"
         style="stroke-width:0.26458332" /></text>
    <use
       height="100%"
       width="100%"
       x="0"
       y="0"
       xlink:href="#text39-1-4"
       id="use3937-1-1"
       transform="translate(0,3.99e-6)" />
    <text
       id="use3955-0-4"
       y="31.382771"
       x="-252.8903"
       style="font-style:normal;font-weight:normal;font-size:10.58333302px;line-height:1.25;font-family:sans-serif;letter-spacing:0px;word-spacing:0px;fill:#000000;fill-opacity:1;stroke:none;stroke-width:0.26458332"
       xml:space="preserve"><tspan
         style="stroke-width:0.26458332"
         y="41.038265"
         x="-252.8903"
         id="tspan3969-0-8"
         sodipodi:role="line" /></text>
    <text
       xml:space="preserve"
       style="font-style:normal;font-weight:normal;font-size:10.58333302px;line-height:1.25;font-family:sans-serif;letter-spacing:0px;word-spacing:0px;fill:#000000;fill-opacity:1;stroke:none;stroke-width:0.26458332"
       x="-462.4075"
       y="-61.797401"
       id="text39-8-7-3"><tspan
         sodipodi:role="line"
         id="tspan37-8-1-1"
         x="-462.4075"
         y="-52.141907"
         style="stroke-width:0.26458332" /></text>
    <use
       height="100%"
       width="100%"
       x="0"
       y="0"
       xlink:href="#text39-8-7-3"
       id="use3937-8-3-4"
       transform="translate(0,3.99e-6)" />
    <text
       id="use3955-5-4-5"
       y="-61.797401"
       x="-462.4075"
       style="font-style:normal;font-weight:normal;font-size:10.58333302px;line-height:1.25;font-family:sans-serif;letter-spacing:0px;word-spacing:0px;fill:#000000;fill-opacity:1;stroke:none;stroke-width:0.26458332"
       xml:space="preserve"><tspan
         style="stroke-width:0.26458332"
         y="-52.141907"
         x="-462.4075"
         id="tspan3969-4-1-2"
         sodipodi:role="line" /></text>
    <path
       style="fill:#000000;fill-opacity:1;stroke:#000000;stroke-width:0.26499999;stroke-miterlimit:4;stroke-dasharray:none;stroke-opacity:1"
       d="m 145.00623,108.77581 a 29.213395,6.8084126 0 0 0 -27.64928,4.72424 71.003948,19.647809 0 0 0 -7.66283,-0.11198 71.003948,19.647809 0 0 0 -70.33631,17.81417 42.834891,13.923503 0 0 0 -17.83029,11.32885 42.834891,13.923503 0 0 0 42.90448,13.87792 42.834891,13.923503 0 0 0 30.500529,-4.18902 71.003948,19.647809 0 0 0 15.223731,0.46347 71.003948,19.647809 0 0 0 61.87414,-10.08243 36.409656,13.883991 0 0 0 28.03298,-13.4949 h -20.52326 a 71.003948,19.647809 0 0 0 -0.0324,-0.0393 l 20.55473,-0.0507 a 36.409656,13.883991 0 0 0 -25.7533,-13.18454 29.213395,6.8084126 0 0 0 0.0531,-0.24727 h -2.61454 a 36.409656,13.883991 0 0 0 -0.41659,-0.0398 l 3.03066,-0.005 a 29.213395,6.8084126 0 0 0 -29.35555,-6.7641 z m 10.77755,6.79247 a 36.409656,13.883991 0 0 0 -0.18599,0.016 h -10.44878 z m -27.05659,17.43389 a 36.409656,13.883991 0 0 0 0.0296,0.0338 h -18.71603 z"
       id="path27661-8"
       inkscape:connector-curvature="0" />
    <path
       style="fill:#ffff00;fill-opacity:1;stroke:none;stroke-width:0.26499999;stroke-miterlimit:4;stroke-dasharray:none;stroke-opacity:1"
       d="m 148.48956,112.97641 c -2.6462,-0.003 -5.04071,0.0325 -6.32526,0.11516 -8.98012,0.57787 -15.72626,1.88822 -19.5511,3.79664 l -1.17829,0.58764 -8.26848,0.0401 c -8.54669,0.0416 -12.01886,0.17774 -19.275539,0.75559 -20.739951,1.65152 -37.364461,5.67705 -46.020411,11.14366 -2.38944,1.50904 -4.80481,4.08162 -5.38784,5.73843 -0.008,0.023 -0.98295,0.29772 -2.16653,0.6104 -4.9928,1.31897 -9.44943,3.19244 -12.08843,5.0816 -6.4945,4.64914 -4.44332,10.1486 5.26715,14.12325 7.1043,2.9079 17.19583,4.78263 28.5546,5.30419 3.42148,0.1571 10.86088,0.0668 14.42126,-0.17479 7.323897,-0.49695 14.492282,-1.64055 19.586739,-3.1248 l 2.080072,-0.60584 3.726819,0.0828 c 7.07919,0.15772 22.38637,0.0766 25.99987,-0.13792 20.35409,-1.20857 36.07547,-4.17272 47.1726,-8.89372 1.64254,-0.69878 2.02934,-0.79184 4.56777,-1.0997 14.27869,-1.73174 24.1814,-6.4958 25.40932,-12.22426 0.18801,-0.87711 0.17772,-1.17389 -0.075,-2.15526 -0.38913,-1.51075 -1.15568,-2.68494 -2.62788,-4.0256 -3.93448,-3.58297 -11.14185,-6.25233 -20.71277,-7.67156 -1.19167,-0.17671 -2.21323,-0.32222 -2.26964,-0.32318 -0.0564,-9.8e-4 -0.19291,-0.29151 -0.30359,-0.64544 -0.84084,-2.68869 -7.94903,-4.91316 -19.18053,-6.00289 -1.83504,-0.17804 -6.9445,-0.28968 -11.35484,-0.2945 z"
       id="path27741-7"
       inkscape:connector-curvature="0" />
    <path
       style="fill:#f2f2f2;fill-opacity:1;stroke:none;stroke-width:0.26499999;stroke-miterlimit:4;stroke-dasharray:none;stroke-opacity:1"
       d="m 151.63863,116.14987 c -2.6462,-0.003 -5.04071,0.0325 -6.32526,0.11516 -8.98012,0.57787 -15.72627,1.88822 -19.5511,3.79664 l -1.17829,0.58763 -8.26848,0.0401 c -8.54669,0.0416 -12.01886,0.17775 -19.275533,0.7556 -20.739957,1.65151 -37.364467,5.67705 -46.020417,11.14366 -2.38944,1.50904 -4.80481,4.08161 -5.38784,5.73843 -0.008,0.023 -0.98294,0.29771 -2.16653,0.61039 -4.9928,1.31898 -9.44943,3.19245 -12.08844,5.08161 -6.49449,4.64913 -4.44332,10.1486 5.26717,14.12325 7.10429,2.9079 17.19582,4.78263 28.55459,5.30419 3.42148,0.1571 10.86088,0.0668 14.421261,-0.17479 7.323894,-0.49695 14.492282,-1.64054 19.586739,-3.12479 l 2.08007,-0.60585 3.72683,0.0828 c 7.07918,0.15773 22.38635,0.0766 25.99985,-0.13791 20.3541,-1.20858 36.07548,-4.17272 47.17261,-8.89372 1.64254,-0.69879 2.02934,-0.79185 4.56777,-1.09971 14.27869,-1.73174 24.1814,-6.4958 25.40933,-12.22426 0.188,-0.87711 0.17771,-1.17389 -0.075,-2.15526 -0.38913,-1.51075 -1.15568,-2.68494 -2.62788,-4.0256 -3.93448,-3.58297 -11.14185,-6.25233 -20.71277,-7.67157 -1.19167,-0.1767 -2.21323,-0.32221 -2.26964,-0.32317 -0.0564,-9.8e-4 -0.19291,-0.29151 -0.30359,-0.64544 -0.84084,-2.68869 -7.94903,-4.91316 -19.18053,-6.00289 -1.83504,-0.17804 -6.9445,-0.28968 -11.35484,-0.2945 z"
       id="path27741-4-0"
       inkscape:connector-curvature="0" />
  </g>
  <g
     inkscape:groupmode="layer"
     id="layer2"
     inkscape:label="Layer 2"
     transform="translate(20.421742,16.517542)">
    <text
       xml:space="preserve"
       style="font-style:normal;font-weight:normal;font-size:10.58333302px;line-height:1.25;font-family:sans-serif;letter-spacing:0px;word-spacing:0px;fill:#000000;fill-opacity:1;stroke:none;stroke-width:0.26458332"
       x="22.054455"
       y="26.832926"
       id="text39"><tspan
         sodipodi:role="line"
         id="tspan37"
         x="22.054455"
         y="36.488422"
         style="stroke-width:0.26458332" /></text>
    <use
       x="0"
       y="0"
       xlink:href="#text39"
       id="use3937"
       width="100%"
       height="100%" />
    <text
       id="use3955"
       y="26.832926"
       x="22.054455"
       style="font-style:normal;font-weight:normal;font-size:10.58333302px;line-height:1.25;font-family:sans-serif;letter-spacing:0px;word-spacing:0px;fill:#000000;fill-opacity:1;stroke:none;stroke-width:0.26458332"
       xml:space="preserve"><tspan
         style="stroke-width:0.26458332"
         y="36.488422"
         x="22.054455"
         id="tspan3969"
         sodipodi:role="line" /></text>
    <text
       xml:space="preserve"
       style="font-style:normal;font-weight:normal;font-size:10.58333302px;line-height:1.25;font-family:sans-serif;letter-spacing:0px;word-spacing:0px;fill:#000000;fill-opacity:1;stroke:none;stroke-width:0.26458332"
       x="-187.46278"
       y="-66.347237"
       id="text39-8"><tspan
         sodipodi:role="line"
         id="tspan37-8"
         x="-187.46278"
         y="-56.691742"
         style="stroke-width:0.26458332" /></text>
    <use
       height="100%"
       width="100%"
       x="0"
       y="0"
       xlink:href="#text39-8"
       id="use3937-8"
       transform="translate(3.4201726e-6,1.8369822e-6)" />
    <text
       id="use3955-5"
       y="-66.347237"
       x="-187.46278"
       style="font-style:normal;font-weight:normal;font-size:10.58333302px;line-height:1.25;font-family:sans-serif;letter-spacing:0px;word-spacing:0px;fill:#000000;fill-opacity:1;stroke:none;stroke-width:0.26458332"
       xml:space="preserve"><tspan
         style="stroke-width:0.26458332"
         y="-56.691742"
         x="-187.46278"
         id="tspan3969-4"
         sodipodi:role="line" /></text>
    <text
       xml:space="preserve"
       style="font-style:normal;font-variant:normal;font-weight:normal;font-stretch:normal;font-size:43.6668129px;line-height:1.25;font-family:'Bradley Hand ITC';-inkscape-font-specification:'Bradley Hand ITC';letter-spacing:0px;word-spacing:0px;fill:#000000;fill-opacity:1;stroke:none;stroke-width:0.22743131;filter:url(#filter1072)"
       x="32.565159"
       y="39.485111"
       id="text3893-6-3-3"
       transform="scale(0.99251337,1.0075431)"><tspan
         sodipodi:role="line"
         id="tspan3891-5-5-4"
         x="32.565159"
         y="39.485111"
         style="font-style:normal;font-variant:normal;font-weight:normal;font-stretch:normal;font-size:43.6668129px;font-family:'Bradley Hand ITC';-inkscape-font-specification:'Bradley Hand ITC';stroke-width:0.22743131">{<tspan
   style="fill:#ffff00;stroke-width:0.22743131"
   id="tspan3895-7-6-8">a</tspan>.<tspan
   style="fill:#ffff00;stroke-width:0.22743131"
   id="tspan3919-1-7-8">d</tspan>ev<tspan
   style="fill:#ffff00;stroke-width:0.22743131"
   id="tspan3921-4-96-3">}</tspan></tspan></text>
    <flowRoot
       xml:space="preserve"
       id="flowRoot3238"
       style="font-style:normal;font-weight:normal;font-size:40px;line-height:1.25;font-family:sans-serif;letter-spacing:0px;word-spacing:0px;fill:#000000;fill-opacity:1;stroke:none"><flowRegion
         id="flowRegion3240"><rect
           id="rect3242"
           width="590.43427"
           height="51.402512"
           x="68.073593"
           y="72.241386" /></flowRegion><flowPara
         id="flowPara3244" /></flowRoot>    <text
       xml:space="preserve"
       style="font-style:normal;font-variant:normal;font-weight:normal;font-stretch:normal;font-size:43.66683197px;line-height:1.25;font-family:'Bradley Hand ITC';-inkscape-font-specification:'Bradley Hand ITC, Normal';font-variant-ligatures:normal;font-variant-caps:normal;font-variant-numeric:normal;font-feature-settings:normal;text-align:start;letter-spacing:0px;word-spacing:0px;writing-mode:lr-tb;text-anchor:start;fill:#000000;fill-opacity:1;stroke:none;stroke-width:0.26458332"
       x="25.798519"
       y="-37.469742"
       id="text43"><tspan
         sodipodi:role="line"
         id="tspan41"
         x="25.798519"
         y="-0.49015123"
         style="stroke-width:0.26458332" /></text>
    <text
       xml:space="preserve"
       style="font-style:normal;font-variant:normal;font-weight:normal;font-stretch:normal;font-size:43.6668129px;line-height:1.25;font-family:'Bradley Hand ITC';-inkscape-font-specification:'Bradley Hand ITC';letter-spacing:0px;word-spacing:0px;fill:#000000;fill-opacity:1;stroke:none;stroke-width:0.22743131"
       x="32.311363"
       y="39.516281"
       id="text3893-6-3-3-1"
       transform="scale(0.99251337,1.0075431)"><tspan
         sodipodi:role="line"
         id="tspan3891-5-5-4-2"
         x="32.311363"
         y="39.516281"
         style="font-style:normal;font-variant:normal;font-weight:normal;font-stretch:normal;font-size:43.6668129px;font-family:'Bradley Hand ITC';-inkscape-font-specification:'Bradley Hand ITC';stroke-width:0.22743131"><tspan
   style="fill:#ffff00"
   id="tspan80">{</tspan>a<tspan
   style="fill:#ffff00"
   id="tspan84">.</tspan>d<tspan
   style="fill:#ffff00"
   id="tspan88">ev</tspan>}</tspan></text>
  </g>
</svg>
